<?xml version="1.0" encoding="UTF-8"?>
<svg id="Layer_2" data-name="Layer 2" xmlns="http://www.w3.org/2000/svg" viewBox="0 0 142.82 92.26">
  <defs>
    <style>
      .cls-1 {
        fill: #231f20;
        stroke-width: 0px;
      }
    </style>
  </defs>
  <g id="Layer_2-2" data-name="Layer 2">
    <path class="cls-1" d="m16.52.17c42.1-.06,84.2-.11,126.3-.17-5.28,19.52-10.55,39.04-15.83,58.55l-25.19.17c4.99,11.06,9.99,22.13,14.98,33.19-9.87.11-19.74.23-29.62.34-5.22-11.12-10.44-22.24-15.66-33.36H.35s-.32,0-.34,0c-.25-.07,2.99-11.66,6.81-25.02h101.62c.62-2.78,1.25-5.56,1.87-8.34-33.82.06-67.63.11-101.45.17C11.42,17.19,13.97,8.68,16.52.17Z"/>
  </g>
</svg>