<svg width="140" height="140" viewBox="0 0 140 140" fill="none" xmlns="http://www.w3.org/2000/svg">
<path d="M34.2637 36.1563H105.514C106.346 36.1559 107.177 36.2087 108.003 36.3143C107.723 34.35 107.048 32.4627 106.019 30.7662C104.99 29.0697 103.629 27.5991 102.016 26.4431C100.403 25.2871 98.5733 24.4697 96.6362 24.0401C94.6991 23.6106 92.695 23.5777 90.7449 23.9436L32.1484 33.9475H32.0816C28.4035 34.6509 25.1327 36.7319 22.9371 39.7655C26.2449 37.4128 30.2045 36.151 34.2637 36.1563ZM105.514 41.5H34.2637C30.4856 41.5041 26.8635 43.0068 24.192 45.6783C21.5205 48.3498 20.0178 51.9719 20.0137 55.75V98.5C20.0178 102.278 21.5205 105.9 24.192 108.572C26.8635 111.243 30.4856 112.746 34.2637 112.75H105.514C109.292 112.746 112.914 111.243 115.585 108.572C118.257 105.9 119.76 102.278 119.764 98.5V55.75C119.76 51.9719 118.257 48.3498 115.585 45.6783C112.914 43.0068 109.292 41.5041 105.514 41.5ZM94.9375 84.25C93.5283 84.25 92.1508 83.8321 90.9791 83.0492C89.8074 82.2663 88.8941 81.1536 88.3549 79.8516C87.8156 78.5497 87.6745 77.1171 87.9494 75.735C88.2243 74.3529 88.9029 73.0833 89.8994 72.0869C90.8958 71.0904 92.1654 70.4118 93.5475 70.1369C94.9296 69.862 96.3622 70.0031 97.6641 70.5424C98.966 71.0816 100.079 71.9949 100.862 73.1666C101.645 74.3383 102.062 75.7158 102.062 77.125C102.062 79.0147 101.312 80.827 99.9756 82.1631C98.6394 83.4993 96.8272 84.25 94.9375 84.25Z" fill="#FF2323"/>
<path d="M20.125 70.7793V48.625C20.125 43.8 22.7969 35.7109 32.0705 33.9586C39.9414 32.4824 47.7344 32.4824 47.7344 32.4824C47.7344 32.4824 52.8555 36.0449 48.625 36.0449C44.3945 36.0449 44.5059 41.5 48.625 41.5C52.7441 41.5 48.625 46.7324 48.625 46.7324L32.0371 65.5469L20.125 70.7793Z" fill="#FF2323"/>
</svg>
