<svg width="140" height="140" viewBox="0 0 140 140" fill="none" xmlns="http://www.w3.org/2000/svg">
<path d="M42.2303 19.2397C43.5215 17.945 45.2334 17.1579 47.0546 17.0213C48.8759 16.8848 50.6855 17.4079 52.1545 18.4956L53.0086 19.2397L98.7657 65.1085C100.057 66.4029 100.843 68.119 100.979 69.9446C101.115 71.7703 100.593 73.5844 99.508 75.057L98.7657 75.9132L53.0086 121.782C51.6461 123.137 49.8239 123.928 47.9056 123.995C45.9873 124.063 44.1142 123.403 42.6599 122.147C41.2056 120.891 40.2772 119.132 40.06 117.22C39.8428 115.309 40.3527 113.385 41.488 111.834L42.2303 110.977L82.5982 70.5109L42.2303 30.0444C40.8022 28.611 40 26.6679 40 24.6421C40 22.6162 40.8022 20.6731 42.2303 19.2397Z" fill="black"/>
</svg>
