<svg id="Layer_1" data-name="Layer 1" xmlns="http://www.w3.org/2000/svg" viewBox="0 0 636.67 532.71"><title>Nissan Logo Vector</title><g id="Layer_1-2" data-name="Layer 1"><g id="Nissan_Badge" data-name="Nissan Badge"><path d="M553.34,526.37a28.94,28.94,0,0,1-3.41.12H484.75v15.16h66.32c.5,0,4.42,0,5.18-.13,13.51-1.26,19.7-12.5,19.7-22.35,0-10.11-6.44-21-18.69-22.11a50.32,50.32,0,0,0-5.31-.25H508.62a22.23,22.23,0,0,1-4.8-.38,6.36,6.36,0,0,1-4.67-6.45,6.47,6.47,0,0,1,4.8-6.31,18.17,18.17,0,0,1,4.55-.38H571V468.38H507.49a42.45,42.45,0,0,0-6.32.38,21,21,0,0,0-18.44,21.35c0,9.1,5.68,19.71,18.19,21.48,2.27.25,5.43.25,6.82.25h42.19a22.54,22.54,0,0,1,3,.12,7,7,0,0,1,6.44,7.33A7.07,7.07,0,0,1,553.34,526.37Z" transform="translate(-182.33 -238.73)"/><path d="M429.8,526.37a27.94,27.94,0,0,1-3.29.12H361.2v15.16h66.32c.51,0,4.42,0,5.18-.13,13.52-1.26,19.71-12.5,19.71-22.35,0-10.11-6.44-21-18.7-22.11a50.26,50.26,0,0,0-5.3-.25H385.08a22.16,22.16,0,0,1-4.8-.38A6.37,6.37,0,0,1,375.6,490a6.48,6.48,0,0,1,4.8-6.31,18.17,18.17,0,0,1,4.55-.38h62.53V468.38H383.94a42.4,42.4,0,0,0-6.31.38,21,21,0,0,0-18.45,21.35c0,9.1,5.69,19.71,18.19,21.48,2.28.25,5.43.25,6.82.25h42.2a22.62,22.62,0,0,1,3,.12,7.28,7.28,0,0,1,.38,14.41Z" transform="translate(-182.33 -238.73)"/><rect x="128.47" y="229.15" width="16.42" height="74.15"/><polygon points="92.22 303.3 92.22 229.15 75.79 229.15 75.79 284.48 21.1 229.15 0 229.15 0 303.3 16.42 303.3 16.42 247.72 71.5 303.3 92.22 303.3"/><polygon points="620.38 229.15 620.38 284.48 565.68 229.15 544.58 229.15 544.58 303.3 561 303.3 561 247.72 615.95 303.3 636.67 303.3 636.67 229.15 620.38 229.15"/><path d="M641.39,467.88,595.15,542h20l8.21-13.26h53.94L685.48,542h19.83l-46.24-74.15Zm27.41,46.86h-37l18.57-29.81Z" transform="translate(-182.33 -238.73)"/><path d="M273.66,425.81c33.1-96.64,124.3-161.57,227.13-161.57S695,329.17,727.92,425.81l.25.76h72.39v-8.72l-30.07-3.53C751.92,412.17,748,404,743,393.6l-1.26-2.53c-43.46-92.47-138.07-152.34-240.9-152.34s-197.44,59.87-240.9,152.6l-1.26,2.52c-5,10.36-9,18.57-27.54,20.72L201,418.11v8.71h72.26Z" transform="translate(-182.33 -238.73)"/><path d="M728.17,583.46l-.25.76c-33.1,96.64-124.3,161.44-227.13,161.44h0c-102.83,0-194.16-64.93-227.13-161.56l-.25-.76H201.15v8.71l30.07,3.54c18.57,2.15,22.48,10.36,27.53,20.72l1.27,2.52c43.45,92.73,138.07,152.6,240.9,152.6h0c102.82,0,197.44-59.87,240.9-152.47l1.26-2.53c5-10.35,9-18.57,27.54-20.71l30.06-3.54v-8.72Z" transform="translate(-182.33 -238.73)"/></g></g></svg>