<svg width="140" height="140" viewBox="0 0 140 140" fill="none" xmlns="http://www.w3.org/2000/svg">
<path fill-rule="evenodd" clip-rule="evenodd" d="M19.6516 19.652C19.0405 20.2316 16.5646 48.4241 19.1665 65.831C19.4437 67.6832 20.3572 69.359 21.6802 70.682L70.5241 119.532C71.4017 120.41 72.4437 121.107 73.5906 121.582C74.7375 122.058 75.9669 122.302 77.2084 122.302C78.4499 122.302 79.6792 122.058 80.8261 121.582C81.973 121.107 83.0151 120.41 83.8927 119.532L119.532 83.8931C120.41 83.0156 121.107 81.9735 121.582 80.8266C122.057 79.6797 122.302 78.4503 122.302 77.2088C122.302 75.9673 122.057 74.738 121.582 73.5911C121.107 72.4442 120.41 71.4021 119.532 70.5245L70.6816 21.6806C69.377 20.3416 67.6762 19.4581 65.8306 19.1606C48.4237 16.5713 20.2312 19.0346 19.6516 19.652Z" fill="black"/>
<path d="M57.754 49.3754C58.3389 49.9608 58.8028 50.6556 59.1192 51.4202C59.4356 52.1848 59.5983 53.0043 59.598 53.8318C59.5977 54.6593 59.4345 55.4786 59.1175 56.243C58.8006 57.0074 58.3362 57.7019 57.7509 58.2868C57.1655 58.8717 56.4707 59.3356 55.7061 59.652C54.9415 59.9684 54.122 60.1311 53.2945 60.1308C52.467 60.1305 51.6477 59.9672 50.8833 59.6503C50.1189 59.3334 49.4244 58.869 48.8395 58.2836C47.6582 57.1015 46.9949 55.4985 46.9955 53.8273C46.9961 52.1561 47.6605 50.5536 48.8427 49.3723C50.0248 48.191 51.6278 47.5277 53.299 47.5283C54.9702 47.5289 56.5727 48.1933 57.754 49.3754Z" fill="white"/>
</svg>
