<svg width="512" height="512" viewBox="0 0 512 512" fill="none" xmlns="http://www.w3.org/2000/svg">
<path d="M441.813 411.52L369.28 339.2C392.682 309.386 405.38 272.569 405.333 234.667C405.333 200.912 395.324 167.915 376.571 139.849C357.818 111.783 331.163 89.9086 299.978 76.9912C268.793 64.0739 234.477 60.6941 201.371 67.2793C168.265 73.8645 137.855 90.119 113.987 113.987C90.1189 137.855 73.8645 168.265 67.2793 201.371C60.6941 234.477 64.0738 268.793 76.9912 299.978C89.9085 331.163 111.783 357.818 139.849 376.571C167.915 395.324 200.912 405.333 234.667 405.333C272.569 405.38 309.386 392.682 339.2 369.28L411.52 441.813C413.503 443.813 415.863 445.4 418.462 446.483C421.062 447.566 423.85 448.124 426.667 448.124C429.483 448.124 432.271 447.566 434.871 446.483C437.471 445.4 439.83 443.813 441.813 441.813C443.813 439.83 445.4 437.471 446.483 434.871C447.566 432.271 448.124 429.483 448.124 426.667C448.124 423.85 447.566 421.062 446.483 418.462C445.4 415.863 443.813 413.503 441.813 411.52ZM106.667 234.667C106.667 209.351 114.174 184.603 128.239 163.554C142.303 142.504 162.294 126.098 185.683 116.41C209.072 106.722 234.809 104.187 259.638 109.126C284.468 114.065 307.275 126.256 325.176 144.157C343.077 162.058 355.268 184.866 360.207 209.695C365.146 234.525 362.611 260.261 352.923 283.65C343.235 307.039 326.829 327.03 305.78 341.095C284.73 355.16 259.983 362.667 234.667 362.667C200.719 362.667 168.162 349.181 144.157 325.176C120.152 301.172 106.667 268.614 106.667 234.667Z" fill="black"/>
</svg>
