<svg width="140" height="140" viewBox="0 0 140 140" fill="none" xmlns="http://www.w3.org/2000/svg">
<g clip-path="url(#clip0_17_2)">
<path d="M105 128.333C100.139 128.333 96.0069 126.632 92.6042 123.229C89.2014 119.826 87.5 115.694 87.5 110.833C87.5 110.153 87.5486 109.447 87.6458 108.716C87.7431 107.985 87.8889 107.329 88.0833 106.75L46.9583 82.8333C45.3056 84.2917 43.4583 85.435 41.4167 86.2634C39.375 87.0917 37.2361 87.5039 35 87.5C30.1389 87.5 26.0069 85.7986 22.6042 82.3958C19.2014 78.9931 17.5 74.8611 17.5 70C17.5 65.1389 19.2014 61.007 22.6042 57.6042C26.0069 54.2014 30.1389 52.5 35 52.5C37.2361 52.5 39.375 52.9142 41.4167 53.7425C43.4583 54.5709 45.3056 55.7122 46.9583 57.1667L88.0833 33.25C87.8889 32.6667 87.7431 32.0114 87.6458 31.2842C87.5486 30.557 87.5 29.8511 87.5 29.1667C87.5 24.3056 89.2014 20.1736 92.6042 16.7709C96.0069 13.3681 100.139 11.6667 105 11.6667C109.861 11.6667 113.993 13.3681 117.396 16.7709C120.799 20.1736 122.5 24.3056 122.5 29.1667C122.5 34.0278 120.799 38.1597 117.396 41.5625C113.993 44.9653 109.861 46.6667 105 46.6667C102.764 46.6667 100.625 46.2545 98.5833 45.43C96.5417 44.6056 94.6944 43.4622 93.0417 42L51.9167 65.9167C52.1111 66.5 52.2569 67.1572 52.3542 67.8883C52.4514 68.6195 52.5 69.3234 52.5 70C52.5 70.6806 52.4514 71.3864 52.3542 72.1175C52.2569 72.8486 52.1111 73.5039 51.9167 74.0833L93.0417 98C94.6944 96.5417 96.5417 95.4003 98.5833 94.5758C100.625 93.7514 102.764 93.3372 105 93.3333C109.861 93.3333 113.993 95.0347 117.396 98.4375C120.799 101.84 122.5 105.972 122.5 110.833C122.5 115.694 120.799 119.826 117.396 123.229C113.993 126.632 109.861 128.333 105 128.333Z" fill="black"/>
</g>
<defs>
<clipPath id="clip0_17_2">
<rect width="140" height="140" fill="white"/>
</clipPath>
</defs>
</svg>
