<svg width="140" height="140" viewBox="0 0 140 140" fill="none" xmlns="http://www.w3.org/2000/svg">
<g clip-path="url(#clip0_17_2)">
<path d="M110.833 52.5C110.836 45.4703 109.024 38.5589 105.572 32.435C102.12 26.311 97.146 21.1819 91.1307 17.5441C85.1154 13.9064 78.2628 11.8831 71.2363 11.6703C64.2097 11.4575 57.2473 13.0623 51.0229 16.3294C44.7984 19.5964 39.5229 24.4151 35.7068 30.3189C31.8908 36.2227 29.6635 43.0117 29.2407 50.0288C28.8178 57.0458 30.2137 64.0531 33.2932 70.3724C36.3726 76.6918 41.0314 82.1091 46.8184 86.1L29.1668 116.667L42.3268 117.209L49.3734 128.333L69.5918 93.31C69.7318 93.31 69.8601 93.3333 70.0001 93.3333C70.1401 93.3333 70.2684 93.3158 70.4084 93.31L90.6268 128.333L97.8134 117.448L110.833 116.667L93.1818 86.1C98.6278 82.3503 103.08 77.3325 106.155 71.479C109.23 65.6255 110.836 59.1121 110.833 52.5ZM40.8334 52.5C40.8334 46.7314 42.544 41.0923 45.7489 36.2959C48.9538 31.4994 53.509 27.7611 58.8385 25.5535C64.168 23.346 70.0324 22.7684 75.6902 23.8938C81.348 25.0192 86.545 27.797 90.624 31.876C94.7031 35.9551 97.4809 41.1521 98.6063 46.8099C99.7317 52.4676 99.1541 58.3321 96.9466 63.6616C94.739 68.9911 91.0007 73.5463 86.2042 76.7512C81.4078 79.9561 75.7687 81.6667 70.0001 81.6667C62.2646 81.6667 54.846 78.5937 49.3761 73.1239C43.9063 67.6541 40.8334 60.2355 40.8334 52.5Z" fill="#FF0202"/>
<path d="M70 70C79.665 70 87.5 62.165 87.5 52.5C87.5 42.835 79.665 35 70 35C60.335 35 52.5 42.835 52.5 52.5C52.5 62.165 60.335 70 70 70Z" fill="#FF0202"/>
</g>
<defs>
<clipPath id="clip0_17_2">
<rect width="140" height="140" fill="white"/>
</clipPath>
</defs>
</svg>
