<svg width="140" height="140" viewBox="0 0 140 140" fill="none" xmlns="http://www.w3.org/2000/svg">
<g clip-path="url(#clip0_17_2)">
<path d="M23.6266 81.9598C15.9688 89.6175 11.6667 99.6703 11.6667 110.5V118H89V110.5C89 99 86.5001 71.5999 52.5001 70C41.6704 70 31.2843 74.302 23.6266 81.9598Z" fill="#FF2323" stroke="#FF2323" stroke-width="4" stroke-linecap="round" stroke-linejoin="round"/>
<path d="M92.1901 71.8258C93.0746 70.855 94.152 70.0796 95.3533 69.5489C96.5547 69.0183 97.8535 68.7442 99.1668 68.7442C100.48 68.7442 101.779 69.0183 102.98 69.5489C104.182 70.0796 105.259 70.855 106.143 71.8258C108.039 73.9083 110.752 75.0342 113.563 74.9C114.876 74.8385 116.187 75.0516 117.412 75.5259C118.637 76.0001 119.75 76.725 120.679 77.6541C121.608 78.5831 122.333 79.696 122.808 80.9213C123.282 82.1466 123.495 83.4575 123.433 84.77C123.299 87.5758 124.425 90.2942 126.502 92.19C130.614 95.935 130.614 102.398 126.502 106.143C124.425 108.039 123.299 110.752 123.433 113.563C123.495 114.876 123.282 116.187 122.808 117.412C122.333 118.637 121.608 119.75 120.679 120.679C119.75 121.608 118.637 122.333 117.412 122.807C116.187 123.282 114.876 123.495 113.563 123.433C112.177 123.368 110.793 123.609 109.511 124.139C108.228 124.669 107.079 125.476 106.143 126.502C105.259 127.472 104.182 128.248 102.98 128.779C101.779 129.309 100.48 129.583 99.1668 129.583C97.8535 129.583 96.5547 129.309 95.3533 128.779C94.152 128.248 93.0746 127.472 92.1901 126.502C91.255 125.476 90.1052 124.669 88.8227 124.139C87.5402 123.609 86.1564 123.368 84.7701 123.433C83.4577 123.495 82.1468 123.282 80.9215 122.807C79.6961 122.333 78.5833 121.608 77.6542 120.679C76.7251 119.75 76.0003 118.637 75.526 117.412C75.0518 116.187 74.8386 114.876 74.9001 113.563C74.965 112.177 74.7231 110.793 74.1917 109.51C73.6603 108.227 72.8525 107.078 71.826 106.143C70.8552 105.259 70.0797 104.181 69.5491 102.98C69.0185 101.779 68.7444 100.48 68.7444 99.1667C68.7444 97.8534 69.0185 96.5545 69.5491 95.3532C70.0797 94.1519 70.8552 93.0745 71.826 92.19C73.9085 90.2942 75.0343 87.5817 74.9001 84.77C74.8386 83.4575 75.0518 82.1466 75.526 80.9213C76.0003 79.696 76.7251 78.5831 77.6542 77.6541C78.5833 76.725 79.6961 76.0001 80.9215 75.5259C82.1468 75.0516 83.4577 74.8385 84.7701 74.9C87.576 75.0342 90.2943 73.9083 92.1901 71.8258Z" fill="#FF7878"/>
<path d="M89.6234 99.1666L95.9817 105.525L108.71 92.8083" stroke="white" stroke-width="7" stroke-linecap="round" stroke-linejoin="round"/>
<path d="M52.5001 70C58.6885 70 64.6234 67.5417 68.9992 63.1658C73.3751 58.79 75.8334 52.855 75.8334 46.6666C75.8334 40.4783 73.3751 34.5433 68.9992 30.1675C64.6234 25.7916 58.6885 23.3333 52.5001 23.3333C46.3117 23.3333 40.3768 25.7916 36.0009 30.1675C31.6251 34.5433 29.1667 40.4783 29.1667 46.6666C29.1667 52.855 31.6251 58.79 36.0009 63.1658C40.3768 67.5417 46.3117 70 52.5001 70Z" fill="#FF2323" stroke="#FF2323" stroke-width="4" stroke-linecap="round" stroke-linejoin="round"/>
</g>
<defs>
<clipPath id="clip0_17_2">
<rect width="140" height="140" fill="white"/>
</clipPath>
</defs>
</svg>
